# 3ds Max Wavefront OBJ Exporter v0.97b - (c)2007 guruware
# File Created: 01.06.2017 00:26:55

mtllib Roof.mtl

#
# object Roof
#

v  -87.076012 82.411156 105.578323
v  10.654060 82.411156 105.578323
v  -87.076012 82.411156 -105.578308
v  10.654060 82.411156 -105.578308
v  -38.210976 110.066528 105.578308
v  -38.210976 110.066528 -105.578308
v  -85.613083 79.792023 105.578323
v  9.191132 79.792023 105.578323
v  -85.613083 79.792023 -105.578308
v  9.191132 79.792023 -105.578308
v  -38.210976 106.268723 105.578323
v  -38.210976 106.268723 -105.578308
v  -7.317413 92.582169 82.771652
v  -25.317417 102.769363 82.771652
v  -25.317419 99.066956 82.771652
v  -7.317417 89.012955 82.771652
v  -7.317417 92.582176 64.771660
v  -7.317417 89.012955 64.771660
v  -25.317417 102.769363 64.771660
v  -25.317419 99.066956 64.771652
v  76.784111 82.799400 -47.481133
v  76.784111 82.799400 47.481133
v  76.784111 104.207222 0.000003
v  -29.094986 104.207222 0.000003
v  8.892200 82.799400 47.481140
v  8.892204 82.799400 -47.481125
v  76.784111 80.070992 -46.233814
v  76.784111 80.070992 46.233814
v  76.784111 101.207222 0.000003
v  -29.094986 101.207222 0.000003
v  8.892200 80.070992 46.233822
v  8.892204 80.070992 -46.233807
# 32 vertices

vn -0.492543 0.870288 0.000000
vn -0.492543 0.870288 -0.000000
vn -0.492543 0.870288 0.000000
vn -0.492543 0.870288 0.000000
vn 0.487643 -0.873043 -0.000000
vn 0.487643 -0.873043 -0.000000
vn 0.487643 -0.873043 -0.000000
vn 0.487643 -0.873043 -0.000000
vn 0.000000 0.000000 -1.000000
vn 0.000000 0.000000 -1.000000
vn 0.000000 0.000000 -1.000000
vn 0.000000 0.000000 -1.000000
vn -0.873043 -0.487642 -0.000000
vn -0.873043 -0.487642 -0.000000
vn -0.873043 -0.487642 -0.000000
vn -0.873043 -0.487642 -0.000000
vn 0.000000 0.000000 1.000000
vn -0.000000 0.000002 1.000000
vn -0.000000 0.000002 1.000000
vn 0.000000 0.000000 1.000000
vn -0.000000 0.000002 1.000000
vn -0.000000 0.000000 1.000000
vn -0.000000 0.000000 1.000000
vn -0.000000 0.000002 1.000000
vn 0.873043 -0.487642 -0.000000
vn 0.873043 -0.487642 -0.000000
vn 0.873043 -0.487642 -0.000000
vn 0.873043 -0.487642 -0.000000
vn 0.000000 0.000000 -1.000000
vn 0.000000 0.000000 -1.000000
vn 0.000000 0.000000 -1.000000
vn 0.000000 0.000000 -1.000000
vn -1.000000 0.000000 0.000000
vn -1.000000 0.000000 -0.000000
vn -1.000000 0.000001 0.000000
vn -1.000000 0.000001 0.000000
vn -0.000000 -0.000000 1.000000
vn -0.000001 -0.000001 1.000000
vn -0.000001 -0.000001 1.000000
vn -0.000000 0.000000 1.000000
vn 0.000000 0.000000 -1.000000
vn 0.000000 0.000000 -1.000000
vn 0.000000 0.000000 -1.000000
vn 0.000000 0.000000 -1.000000
vn 1.000000 -0.000001 -0.000000
vn 1.000000 -0.000001 -0.000000
vn 1.000000 -0.000001 -0.000000
vn 1.000000 -0.000001 -0.000000
vn -0.487643 -0.873043 0.000000
vn -0.487643 -0.873043 0.000000
vn -0.487643 -0.873043 0.000000
vn -0.487643 -0.873043 -0.000000
vn 0.492543 0.870288 -0.000000
vn 0.492544 0.870288 0.000000
vn 0.492543 0.870288 -0.000000
vn 0.492543 0.870288 -0.000000
vn -0.487643 -0.873043 0.000000
vn -0.487643 -0.873043 -0.000000
vn -0.487643 -0.873043 -0.000000
vn -0.487643 -0.873043 0.000000
vn 0.492543 0.870288 -0.000000
vn 0.492543 0.870288 -0.000000
vn 0.492543 0.870288 0.000000
vn 0.492545 0.870287 0.000000
vn -0.487643 -0.873043 -0.000000
vn -0.487643 -0.873043 0.000000
vn -0.487643 -0.873043 -0.000000
vn -0.487643 -0.873043 -0.000000
vn -0.487643 -0.873043 -0.000000
vn -0.487643 -0.873043 -0.000000
vn -0.487643 -0.873043 -0.000000
vn -0.487643 -0.873043 -0.000000
vn 0.492544 0.870288 -0.000000
vn 0.492543 0.870288 0.000000
vn 0.492543 0.870288 0.000000
vn 0.492544 0.870288 -0.000000
vn 0.492543 0.870288 -0.000000
vn 0.492543 0.870288 -0.000000
vn 0.492543 0.870288 -0.000000
vn 0.492543 0.870288 -0.000000
vn -0.000000 0.911624 -0.411024
vn -0.000000 0.911624 -0.411024
vn -0.000000 0.911624 -0.411024
vn 0.000000 0.911624 -0.411024
vn 0.000000 0.911624 0.411024
vn 0.000000 0.911624 0.411024
vn 0.000000 0.911624 0.411024
vn 0.000000 0.911624 0.411024
vn 0.000000 -0.909469 0.415772
vn 0.000000 -0.909469 0.415772
vn 0.000000 -0.909469 0.415772
vn 0.000000 -0.909469 0.415772
vn -0.000000 -0.909469 -0.415772
vn 0.000000 -0.909469 -0.415772
vn -0.000000 -0.909469 -0.415772
vn -0.000000 -0.909469 -0.415772
vn 1.000000 0.000000 -0.000000
vn 1.000000 0.000000 -0.000000
vn 1.000000 0.000000 -0.000000
vn 1.000000 0.000000 -0.000000
vn -0.000000 -0.415772 -0.909469
vn -0.000000 -0.415772 -0.909469
vn -0.000000 -0.415772 -0.909469
vn -0.000000 -0.415772 -0.909469
vn -0.807730 -0.238399 -0.539202
vn -0.772649 0.000000 -0.634833
vn -0.774978 -0.009247 -0.631920
vn -0.807936 -0.245002 -0.535923
vn 0.000000 -0.415772 0.909469
vn 0.000000 -0.415772 0.909469
vn 0.000000 -0.415772 0.909469
vn 0.000000 -0.415772 0.909469
vn 1.000000 0.000000 -0.000000
vn 1.000000 0.000000 -0.000000
vn 1.000000 0.000000 -0.000000
vn 1.000000 0.000000 -0.000000
vn -0.781998 -0.006154 0.623250
vn -0.801057 -0.248877 0.544398
vn -0.801244 -0.242036 0.547199
vn -0.780851 0.000000 0.624718
# 120 vertex normals

vt -0.664058 -1.120157 1.525984
vt 1.290544 1.525984 -1.120157
vt -0.664057 3.102976 1.525984
vt 3.102975 1.525984 1.290545
vt 0.313243 -1.120157 2.079092
vt 0.313244 3.102976 2.079092
vt 2.634799 -1.120157 1.473601
vt 1.261285 1.473601 -1.120157
vt 2.634798 3.102976 1.473601
vt 3.102975 1.473601 1.261286
vt 1.686757 -1.120157 2.003135
vt 1.686756 3.102976 2.003135
vt 2.664024 1.729404 0.931114
vt 1.428886 1.933148 -0.664024
vt 1.428886 1.859100 -0.664024
vt 2.664024 1.658020 0.931114
vt 2.304024 1.729404 0.931114
vt 2.304024 1.658020 0.931114
vt 0.571114 1.933148 -0.304024
vt 0.571114 1.859100 -0.304024
vt 2.664057 1.525984 3.102976
vt 1.686756 2.079092 3.102976
vt 1.686756 2.003135 3.102976
vt 2.634798 1.473601 3.102976
vt 3.120157 1.525984 -0.664058
vt -1.102976 1.525984 -0.664057
vt -1.102976 1.473601 -0.634798
vt 3.120157 1.473601 -0.634799
vt 0.313243 2.079092 -1.120157
vt -0.664058 1.525984 -1.120157
vt -0.634799 1.473601 -1.120157
vt 0.313243 2.003135 -1.120157
vt 0.313243 2.079092 -1.120157
vt 0.313243 2.003135 -1.120157
vt -1.120157 1.525984 1.290544
vt -1.120157 1.473601 1.261285
vt 1.686756 2.079092 3.102976
vt 0.709455 1.525984 3.102975
vt 0.738714 1.473601 3.102975
vt 1.686756 2.003135 3.102976
vt 0.931114 1.729404 -0.304024
vt 0.931114 1.658020 -0.304024
vt 1.068886 1.658020 -0.664024
vt 1.068886 1.729404 -0.664024
vt -0.664024 1.859100 0.571114
vt -0.304024 1.859100 0.571114
vt -0.304024 1.933148 0.571114
vt -0.664024 1.933148 0.571114
vt 1.428886 -0.664024 1.859100
vt 1.068886 -0.664024 1.658020
vt 0.738715 -1.120157 1.473601
vt 0.931114 -0.664024 1.729404
vt 0.571114 -0.664024 1.933148
vt 1.290544 -1.120157 1.525984
vt 1.068886 -0.664024 1.658020
vt 1.068886 -0.304024 1.658020
vt 0.738714 3.102975 1.473601
vt 0.738715 -1.120157 1.473601
vt 0.931114 -0.304024 1.729404
vt 0.931114 -0.664024 1.729404
vt 1.290544 -1.120157 1.525984
vt 1.290545 3.102975 1.525984
vt 1.068886 -0.304024 1.658020
vt 1.428886 -0.304024 1.859100
vt 0.738714 3.102975 1.473601
vt 1.428886 -0.304024 1.859100
vt 1.428886 -0.664024 1.859100
vt 0.571114 -0.304024 1.933148
vt 0.931114 -0.304024 1.729404
vt 1.290545 3.102975 1.525984
vt 0.571114 -0.664024 1.933148
vt 0.571114 -0.304024 1.933148
vt 2.613145 1.941032 1.533749
vt 2.613145 0.041786 1.533749
vt 2.613145 0.991409 1.961905
vt 0.495563 0.991409 1.961905
vt 1.255307 0.041786 1.533749
vt 1.255307 1.941032 1.533749
vt -0.613145 1.916085 1.479181
vt -0.613145 0.066733 1.479181
vt -0.613145 0.991409 1.901905
vt 1.504437 0.991409 1.901905
vt 0.744693 0.066733 1.479181
vt 0.744693 1.916085 1.479181
vt 1.941032 1.533749 2.613145
vt 0.991409 1.961905 2.613145
vt 0.991409 1.901905 2.613145
vt 1.916085 1.479181 2.613145
vt 0.744693 1.533749 1.941032
vt -0.613145 1.533749 1.941032
vt -0.613145 1.479181 1.916085
vt 0.744693 1.479181 1.916085
vt 1.008591 1.961905 0.495563
vt 0.058968 1.533749 1.255307
vt 0.083915 1.479181 1.255307
vt 1.008591 1.901905 0.495563
vt 2.613145 1.533749 0.041786
vt 1.255307 1.533749 0.041786
vt 1.255307 1.479181 0.066733
vt 2.613145 1.479181 0.066733
vt 0.991409 1.961905 2.613145
vt 0.041786 1.533749 2.613145
vt 0.066733 1.479181 2.613145
vt 0.991409 1.901905 2.613145
vt 1.958214 1.533749 1.255307
vt 1.008591 1.961905 0.495563
vt 1.008591 1.901905 0.495563
vt 1.933267 1.479181 1.255307
# 108 texture coords

g Roof
usemtl M_House_Roof
s 1
f 3/3/1 1/1/2 5/5/3 6/6/4 
f 11/11/5 7/7/6 9/9/7 12/12/8 
s 2
f 12/23/9 9/24/10 3/21/11 6/22/12 
s 4
f 9/27/13 7/28/14 1/25/15 3/26/16 
s 2
f 7/31/17 11/32/18 5/29/19 1/30/20 
f 11/34/21 8/8/22 2/2/23 5/33/24 
s 1
f 8/36/25 10/10/26 4/4/27 2/35/28 
s 2
f 10/39/29 12/40/30 6/37/31 4/38/32 
s 16
f 17/17/33 18/18/34 16/16/35 13/13/36 
s 32
f 17/41/37 19/19/38 20/20/39 18/42/40 
s 1
f 14/14/41 13/44/42 16/43/43 15/15/44 
s 64
f 19/47/45 14/48/46 15/45/47 20/46/48 
s 8
f 16/50/49 8/51/50 11/11/51 15/49/52 
f 13/52/53 14/53/54 5/5/55 2/54/56 
f 16/55/57 18/56/58 10/57/59 8/58/60 
f 13/60/61 2/61/62 4/62/63 17/59/64 
s 4
f 18/63/65 20/64/66 12/12/67 10/65/68 
s 16
f 20/66/69 15/67/70 11/11/71 12/12/72 
s 4
f 17/69/73 4/70/74 6/6/75 19/68/76 
s off
f 5/5/77 14/71/78 19/72/79 6/6/80 
s 1
f 21/73/81 26/78/82 24/76/83 23/75/84 
s 32
f 23/75/85 24/76/86 25/77/87 22/74/88 
s 1
f 30/82/89 32/84/90 27/79/91 29/81/92 
s 32
f 31/83/93 30/82/94 29/81/95 28/80/96 
s 2
f 29/87/97 27/88/98 21/85/99 23/86/100 
s 4
f 27/91/101 32/92/102 26/89/103 21/90/104 
s 2
f 32/95/105 30/96/106 24/93/107 26/94/108 
s 1
f 31/99/109 28/100/110 22/97/111 25/98/112 
s 2
f 28/103/113 29/104/114 23/101/115 22/102/116 
s 4
f 30/107/117 31/108/118 25/105/119 24/106/120 
# 30 polygons

