# 3ds Max Wavefront OBJ Exporter v0.97b - (c)2007 guruware
# File Created: 01.06.2017 13:04:16

mtllib budka.mtl

#
# object Budka
#

v  -20.239723 35.398552 -83.095520
v  -20.239723 35.398552 -116.444611
v  21.052605 35.398552 -83.095520
v  21.052605 25.060986 16.433712
v  -20.239723 25.060986 -57.025578
v  -20.239723 25.505890 -91.529114
v  -42.062675 25.060986 -57.025578
v  -42.062675 25.060986 -53.488117
v  41.235771 35.398552 -64.843613
v  37.537712 96.725021 -116.500336
v  -20.239723 25.060982 -92.021545
v  21.052605 25.060986 -116.444611
v  -20.239723 25.060986 -116.444611
v  21.052605 35.398552 -116.444611
v  21.052605 25.060986 -92.021545
v  21.052605 25.060986 -57.025578
v  -20.239723 25.060986 16.433712
v  -20.239723 35.398552 16.433712
v  -20.239723 25.060982 -53.488117
v  -20.239723 25.060986 -94.875732
v  21.052605 35.398552 16.433712
v  21.052605 25.060986 -53.488117
v  40.853935 25.060986 -94.875732
v  41.235771 25.060986 -57.025578
v  41.235771 25.060986 -53.488117
v  -42.062675 35.398552 -64.843613
v  -42.062675 33.352905 -66.377518
v  -42.062675 35.398552 -83.095520
v  -42.062675 33.352905 -82.843903
v  -42.062675 25.060986 -94.875732
v  -42.062675 25.060986 -92.021545
v  -20.239723 33.352905 -66.377518
v  -20.239723 33.352905 -82.843903
v  -20.239723 25.060986 -94.875732
v  -20.239723 35.398552 -83.095520
v  -20.239723 35.398552 -64.843613
v  41.235771 33.352905 -66.377518
v  21.052605 33.352905 -66.377518
v  41.235771 33.352905 -82.843903
v  21.052605 33.352905 -82.843903
v  41.235771 25.060986 -92.021545
v  21.052605 35.398552 -64.843613
v  41.235771 35.398552 -83.095520
v  21.052605 25.060986 -94.875732
v  41.235771 25.060986 -94.875732
v  -37.652290 35.025585 -116.500336
v  -41.946770 35.025585 12.651867
v  -41.946770 35.025585 -116.500336
v  41.178825 35.025585 12.651867
v  37.537712 35.025585 -116.500336
v  41.178825 35.025585 -116.500336
v  41.178825 109.422020 12.651867
v  -41.946770 109.422020 -116.500336
v  -41.946770 109.422020 12.651867
v  41.178825 109.422020 -116.500336
v  -21.484245 103.626022 12.651867
v  -21.484245 87.357994 12.651867
v  -37.652290 96.725021 -116.500336
v  22.161674 103.626022 31.697353
v  -21.484245 93.309708 31.697353
v  22.161674 87.357994 12.651867
v  22.161674 93.309708 31.697353
v  22.161674 103.626022 12.651867
v  -21.484245 103.626022 31.697353
# 64 vertices

vn 0.000000 1.000000 -0.000000
vn 0.000000 1.000000 -0.000000
vn 0.000000 1.000000 -0.000000
vn 0.000000 1.000000 -0.000000
vn 0.000000 1.000000 -0.000000
vn 0.000000 1.000000 -0.000000
vn 0.000000 1.000000 -0.000000
vn 0.000000 1.000000 -0.000000
vn 0.000000 1.000000 -0.000000
vn 0.000000 1.000000 -0.000000
vn 0.000000 1.000000 -0.000000
vn 0.000000 1.000000 -0.000000
vn 0.000000 1.000000 -0.000000
vn 0.000000 1.000000 -0.000000
vn 0.000000 1.000000 -0.000000
vn 0.000000 1.000000 -0.000000
vn 0.000000 1.000000 -0.000000
vn 0.000000 1.000000 -0.000000
vn 0.000000 0.000000 1.000000
vn 0.000000 0.000000 1.000000
vn 0.000000 0.000000 1.000000
vn 0.000000 0.000000 1.000000
vn 0.000000 0.000000 1.000000
vn 0.000000 0.000000 1.000000
vn -1.000000 0.000000 -0.000000
vn -1.000000 0.000000 -0.000000
vn -1.000000 0.000000 -0.000000
vn -1.000000 0.000000 -0.000000
vn -1.000000 0.000000 -0.000000
vn -1.000000 0.000000 -0.000000
vn -1.000000 0.000000 -0.000000
vn -1.000000 0.000000 -0.000000
vn -1.000000 0.000000 -0.000000
vn -1.000000 0.000000 -0.000000
vn -1.000000 0.000000 -0.000000
vn -1.000000 0.000000 -0.000000
vn -1.000000 0.000000 -0.000000
vn -1.000000 0.000000 -0.000000
vn -1.000000 0.000000 -0.000000
vn -1.000000 0.000000 -0.000000
vn -1.000000 0.000000 -0.000000
vn -1.000000 0.000000 -0.000000
vn -1.000000 0.000000 -0.000000
vn -1.000000 0.000000 -0.000000
vn -1.000000 0.000000 -0.000000
vn 0.000000 -1.000000 -0.000000
vn 0.000000 -1.000000 -0.000000
vn 0.000000 -1.000000 -0.000000
vn 0.000000 -1.000000 -0.000000
vn 0.000000 -1.000000 -0.000000
vn 0.000000 -1.000000 -0.000000
vn 0.000000 1.000000 -0.000000
vn 0.000000 1.000000 -0.000000
vn 0.000000 1.000000 -0.000000
vn 0.000000 1.000000 -0.000000
vn 0.000000 1.000000 -0.000000
vn 0.000000 1.000000 -0.000000
vn 0.000000 1.000000 -0.000000
vn 0.000000 1.000000 -0.000000
vn 0.000000 1.000000 -0.000000
vn 0.000000 1.000000 -0.000000
vn 0.000000 1.000000 -0.000000
vn 0.000000 1.000000 -0.000000
vn 0.000000 0.000000 -1.000000
vn 0.000000 0.000000 -1.000000
vn 0.000000 0.000000 -1.000000
vn 0.000000 0.000000 -1.000000
vn 0.000000 0.000000 -1.000000
vn 0.000000 0.000000 -1.000000
vn -1.000000 0.000000 -0.000000
vn -1.000000 0.000000 -0.000000
vn -1.000000 0.000000 -0.000000
vn -1.000000 0.000000 -0.000000
vn -1.000000 0.000000 -0.000000
vn -1.000000 0.000000 -0.000000
vn -1.000000 0.000000 -0.000000
vn -1.000000 0.000000 -0.000000
vn -1.000000 0.000000 -0.000000
vn 0.000000 0.000000 -1.000000
vn 0.000000 0.000000 -1.000000
vn 0.000000 0.000000 -1.000000
vn 0.000000 0.000000 -1.000000
vn 0.000000 0.000000 -1.000000
vn 0.000000 0.000000 -1.000000
vn 1.000000 0.000000 -0.000000
vn 1.000000 0.000000 -0.000000
vn 1.000000 0.000000 -0.000000
vn 1.000000 0.000000 -0.000000
vn 1.000000 0.000000 -0.000000
vn 1.000000 0.000000 -0.000000
vn -1.000000 0.000000 -0.000000
vn -1.000000 0.000000 -0.000000
vn -1.000000 0.000000 -0.000000
vn -1.000000 0.000000 -0.000000
vn -1.000000 0.000000 -0.000000
vn -1.000000 0.000000 -0.000000
vn -1.000000 0.000000 -0.000000
vn -1.000000 0.000000 -0.000000
vn -1.000000 0.000000 -0.000000
vn -1.000000 0.000000 -0.000000
vn -1.000000 0.000000 -0.000000
vn -1.000000 0.000000 -0.000000
vn 1.000000 0.000000 -0.000000
vn 1.000000 0.000000 -0.000000
vn 1.000000 0.000000 -0.000000
vn 1.000000 0.000000 -0.000000
vn 1.000000 0.000000 -0.000000
vn 1.000000 0.000000 -0.000000
vn 0.000000 -1.000000 -0.000000
vn 0.000000 -1.000000 -0.000000
vn 0.000000 -1.000000 -0.000000
vn 0.000000 -1.000000 -0.000000
vn 0.000000 -1.000000 -0.000000
vn 0.000000 -1.000000 -0.000000
vn 1.000000 0.000000 -0.000000
vn 1.000000 0.000000 -0.000000
vn 1.000000 0.000000 -0.000000
vn 1.000000 0.000000 -0.000000
vn 1.000000 0.000000 -0.000000
vn 1.000000 0.000000 -0.000000
vn -1.000000 0.000000 -0.000000
vn -1.000000 0.000000 -0.000000
vn -1.000000 0.000000 -0.000000
vn -1.000000 0.000000 -0.000000
vn -1.000000 0.000000 -0.000000
vn -1.000000 0.000000 -0.000000
vn 0.000000 -0.736600 -0.676329
vn 0.000000 -0.736600 -0.676329
vn 0.000000 -0.736600 -0.676329
vn 0.000000 -0.736600 -0.676329
vn 0.000000 -0.736600 -0.676329
vn 0.000000 -0.736600 -0.676329
vn 0.000000 -1.000000 -0.000000
vn 0.000000 -1.000000 -0.000000
vn 0.000000 -1.000000 -0.000000
vn 0.000000 -1.000000 -0.000000
vn 0.000000 -1.000000 -0.000000
vn 0.000000 -1.000000 -0.000000
vn 0.000000 -0.736600 0.676329
vn 0.000000 -0.736600 0.676329
vn 0.000000 -0.736600 0.676329
vn 0.000000 -0.736600 0.676329
vn 0.000000 -0.736600 0.676329
vn 0.000000 -0.736600 0.676329
vn 0.000000 -1.000000 -0.000000
vn 0.000000 -1.000000 -0.000000
vn 0.000000 -1.000000 -0.000000
vn 0.000000 -1.000000 -0.000000
vn 0.000000 -1.000000 -0.000000
vn 0.000000 -1.000000 -0.000000
vn 0.000000 0.739336 -0.673337
vn 0.000000 0.739336 -0.673337
vn 0.000000 0.739336 -0.673337
vn 0.000000 0.739336 -0.673337
vn 0.000000 0.739336 -0.673337
vn 0.000000 0.739336 -0.673337
vn 0.000000 0.733947 0.679206
vn 0.000000 0.733947 0.679206
vn 0.000000 0.733947 0.679206
vn 0.000000 0.733947 0.679206
vn 0.000000 0.733947 0.679206
vn 0.000000 0.733947 0.679206
vn 0.000000 -0.736600 -0.676329
vn 0.000000 -0.736600 -0.676329
vn 0.000000 -0.736600 -0.676329
vn 0.000000 -0.736600 -0.676329
vn 0.000000 -0.736600 -0.676329
vn 0.000000 -0.736600 -0.676329
vn 0.000000 -1.000000 -0.000000
vn 0.000000 -1.000000 -0.000000
vn 0.000000 -1.000000 -0.000000
vn 0.000000 -1.000000 -0.000000
vn 0.000000 -1.000000 -0.000000
vn 0.000000 -1.000000 -0.000000
vn 0.000000 -0.733852 0.679309
vn 0.000000 -0.733852 0.679309
vn 0.000000 -0.733852 0.679309
vn 0.000000 -0.733852 0.679309
vn 0.000000 -0.733852 0.679309
vn 0.000000 -0.733852 0.679309
vn 0.000000 0.736600 0.676329
vn 0.000000 0.736600 0.676329
vn 0.000000 0.736600 0.676329
vn 0.000000 0.736600 0.676329
vn 0.000000 0.736600 0.676329
vn 0.000000 0.736600 0.676329
vn 0.000000 0.738748 -0.673982
vn 0.000000 0.738748 -0.673982
vn 0.000000 0.738748 -0.673982
vn 0.000000 0.738748 -0.673982
vn 0.000000 0.738748 -0.673982
vn 0.000000 0.738748 -0.673982
vn 0.000000 0.738748 -0.673982
vn 0.000000 0.738748 -0.673982
vn 0.000000 0.738748 -0.673982
vn 1.000000 0.000000 -0.000000
vn 1.000000 0.000000 -0.000000
vn 1.000000 0.000000 -0.000000
vn 1.000000 0.000000 -0.000000
vn 1.000000 0.000000 -0.000000
vn 1.000000 0.000000 -0.000000
vn 0.000000 -1.000000 -0.000000
vn 0.000000 -1.000000 -0.000000
vn 0.000000 -1.000000 -0.000000
vn 0.000000 -1.000000 -0.000000
vn 0.000000 -1.000000 -0.000000
vn 0.000000 -1.000000 -0.000000
vn 0.000000 -1.000000 -0.000000
vn 0.000000 -1.000000 -0.000000
vn 0.000000 -1.000000 -0.000000
vn 0.000000 -1.000000 -0.000000
vn 0.000000 -1.000000 -0.000000
vn 0.000000 -1.000000 -0.000000
vn 0.000000 1.000000 -0.000000
vn 0.000000 1.000000 -0.000000
vn 0.000000 1.000000 -0.000000
vn 0.000000 1.000000 -0.000000
vn 0.000000 1.000000 -0.000000
vn 0.000000 1.000000 -0.000000
vn -1.000000 0.000000 -0.000000
vn -1.000000 0.000000 -0.000000
vn -1.000000 0.000000 -0.000000
vn -1.000000 0.000000 -0.000000
vn -1.000000 0.000000 -0.000000
vn -1.000000 0.000000 -0.000000
vn 0.000000 0.000000 1.000000
vn 0.000000 0.000000 1.000000
vn 0.000000 0.000000 1.000000
vn 0.000000 0.000000 1.000000
vn 0.000000 0.000000 1.000000
vn 0.000000 0.000000 1.000000
vn 0.000000 0.000000 1.000000
vn 0.000000 0.000000 1.000000
vn 0.000000 0.000000 1.000000
vn 0.000000 0.000000 1.000000
vn 0.000000 0.000000 1.000000
vn 0.000000 0.000000 1.000000
vn 0.000000 0.000000 1.000000
vn 0.000000 0.000000 1.000000
vn 0.000000 0.000000 1.000000
vn 0.000000 0.000000 1.000000
vn 0.000000 0.000000 1.000000
vn 0.000000 0.000000 1.000000
vn 0.000000 0.000000 1.000000
vn 0.000000 0.000000 1.000000
vn 0.000000 0.000000 1.000000
vn 0.000000 0.000000 1.000000
vn 0.000000 0.000000 1.000000
vn 0.000000 0.000000 1.000000
vn 1.000000 0.000000 -0.000000
vn 1.000000 0.000000 -0.000000
vn 1.000000 0.000000 -0.000000
vn 1.000000 0.000000 -0.000000
vn 1.000000 0.000000 -0.000000
vn 1.000000 0.000000 -0.000000
vn 0.000000 0.000000 -1.000000
vn 0.000000 0.000000 -1.000000
vn 0.000000 0.000000 -1.000000
vn 0.000000 0.000000 -1.000000
vn 0.000000 0.000000 -1.000000
vn 0.000000 0.000000 -1.000000
vn 0.000000 0.000000 -1.000000
vn 0.000000 0.000000 -1.000000
vn 0.000000 0.000000 -1.000000
vn 0.000000 0.000000 -1.000000
vn 0.000000 0.000000 -1.000000
vn 0.000000 0.000000 -1.000000
vn 0.000000 0.000000 -1.000000
vn 0.000000 0.000000 -1.000000
vn 0.000000 0.000000 -1.000000
vn 0.000000 0.000000 -1.000000
vn 0.000000 0.000000 -1.000000
vn 0.000000 0.000000 -1.000000
vn 0.000000 0.000000 1.000000
vn 0.000000 0.000000 1.000000
vn 0.000000 0.000000 1.000000
vn 0.000000 0.000000 1.000000
vn 0.000000 0.000000 1.000000
vn 0.000000 0.000000 1.000000
vn 0.000000 -0.955824 0.293938
vn 0.000000 -0.955824 0.293938
vn 0.000000 -0.955824 0.293938
vn 0.000000 -0.955824 0.293938
vn 0.000000 -0.955824 0.293938
vn 0.000000 -0.955824 0.293938
vn 1.000000 0.000000 -0.000000
vn 1.000000 0.000000 -0.000000
vn 1.000000 0.000000 -0.000000
vn 1.000000 0.000000 -0.000000
vn 1.000000 0.000000 -0.000000
vn 1.000000 0.000000 -0.000000
vn 0.000000 1.000000 -0.000000
vn 0.000000 1.000000 -0.000000
vn 0.000000 1.000000 -0.000000
vn 0.000000 1.000000 -0.000000
vn 0.000000 1.000000 -0.000000
vn 0.000000 1.000000 -0.000000
vn -1.000000 0.000000 -0.000000
vn -1.000000 0.000000 -0.000000
vn -1.000000 0.000000 -0.000000
vn -1.000000 0.000000 -0.000000
vn -1.000000 0.000000 -0.000000
vn -1.000000 0.000000 -0.000000
vn 0.000000 -1.000000 -0.000000
vn 0.000000 -1.000000 -0.000000
vn 0.000000 -1.000000 -0.000000
vn 0.000000 -1.000000 -0.000000
vn 0.000000 -1.000000 -0.000000
vn 0.000000 -1.000000 -0.000000
vn 0.000000 -1.000000 -0.000000
vn 0.000000 -1.000000 -0.000000
vn 0.000000 -1.000000 -0.000000
vn 0.000000 -1.000000 -0.000000
vn 0.000000 -1.000000 -0.000000
vn 0.000000 -1.000000 -0.000000
vn 0.000000 -1.000000 -0.000000
vn 0.000000 -1.000000 -0.000000
vn 0.000000 -1.000000 -0.000000
vn -1.000000 0.000000 -0.000000
vn -1.000000 0.000000 -0.000000
vn -1.000000 0.000000 -0.000000
vn -1.000000 0.000000 -0.000000
vn -1.000000 0.000000 -0.000000
vn -1.000000 0.000000 -0.000000
vn -1.000000 0.000000 -0.000000
vn -1.000000 0.000000 -0.000000
vn -1.000000 0.000000 -0.000000
vn -1.000000 0.000000 -0.000000
vn -1.000000 0.000000 -0.000000
vn -1.000000 0.000000 -0.000000
vn 1.000000 0.000000 -0.000000
vn 1.000000 0.000000 -0.000000
vn 1.000000 0.000000 -0.000000
vn 1.000000 0.000000 -0.000000
vn 1.000000 0.000000 -0.000000
vn 1.000000 0.000000 -0.000000
vn 1.000000 0.000000 -0.000000
vn 1.000000 0.000000 -0.000000
vn 1.000000 0.000000 -0.000000
vn 1.000000 0.000000 -0.000000
vn 1.000000 0.000000 -0.000000
vn 1.000000 0.000000 -0.000000
vn 0.000000 -1.000000 -0.000000
vn 0.000000 -1.000000 -0.000000
vn 0.000000 -1.000000 -0.000000
vn 0.000000 -1.000000 -0.000000
vn 0.000000 -1.000000 -0.000000
vn 0.000000 -1.000000 -0.000000
vn 0.000000 -1.000000 -0.000000
vn 0.000000 -1.000000 -0.000000
vn 0.000000 -1.000000 -0.000000
vn 0.000000 -1.000000 -0.000000
vn 0.000000 -1.000000 -0.000000
vn 0.000000 -1.000000 -0.000000
vn 0.000000 -1.000000 0.000000
vn 0.000000 -1.000000 0.000000
vn 0.000000 -1.000000 0.000000
vn 0.000000 -1.000000 0.000000
vn 0.000000 -1.000000 0.000000
vn 0.000000 -1.000000 0.000000
vn 0.000000 -1.000000 -0.000001
vn 0.000000 -1.000000 -0.000001
vn 0.000000 -1.000000 -0.000001
vn 0.000000 -1.000000 -0.000001
vn 0.000000 -1.000000 -0.000001
vn 0.000000 -1.000000 -0.000001
# 366 vertex normals

vt 11.574183 8.567707 0.000000
vt 9.839711 12.835246 0.000000
vt 9.839711 8.567707 0.000000
vt 9.839711 13.793579 0.000000
vt 11.574183 15.544601 0.000000
vt 9.839711 15.544601 0.000000
vt 11.574183 12.835246 0.000000
vt 11.574183 13.793579 0.000000
vt 11.574183 1.891989 0.000000
vt 9.839711 1.349206 0.000000
vt 11.574183 1.349206 0.000000
vt 9.839711 1.891989 0.000000
vt -10.268197 1.891989 0.000000
vt -9.939801 1.349206 0.000000
vt -9.791212 1.349206 0.000000
vt -10.332627 1.784580 0.000000
vt -11.034863 1.891989 0.000000
vt -11.024295 1.784580 0.000000
vt -11.389112 1.372566 0.000000
vt -11.529687 1.349206 0.000000
vt -11.409797 1.349206 0.000000
vt 9.839711 12.239015 0.000000
vt 8.923044 12.424752 0.000000
vt 8.923044 12.239015 0.000000
vt 9.839711 12.424752 0.000000
vt -9.839711 13.793579 0.000000
vt -8.923044 12.835246 0.000000
vt -8.923044 13.793579 0.000000
vt -9.839711 12.835246 0.000000
vt 12.421971 12.835246 0.000000
vt 12.421971 13.793579 0.000000
vt -9.108302 5.111989 0.000000
vt -12.266636 1.872406 0.000000
vt -9.108302 1.872406 0.000000
vt -12.266636 5.111989 0.000000
vt 0.000000 0.000000 0.000000
vt 9.939801 1.349206 0.000000
vt 10.268197 1.891989 0.000000
vt 9.791212 1.349206 0.000000
vt 10.332627 1.784580 0.000000
vt 11.034863 1.891989 0.000000
vt 11.024295 1.784580 0.000000
vt 11.529687 1.349206 0.000000
vt 11.409797 1.349206 0.000000
vt 9.839711 10.191801 0.000000
vt 8.923044 10.191801 0.000000
vt 8.923044 10.848051 0.000000
vt 9.839711 10.848051 0.000000
vt 9.839711 12.915785 0.000000
vt 8.923044 13.780368 0.000000
vt 8.923044 12.915785 0.000000
vt 9.839711 13.780368 0.000000
vt -9.839711 -9.028703 0.000000
vt -8.923044 -9.028703 0.000000
vt -8.923044 -9.678131 0.000000
vt -9.839711 -9.678131 0.000000
vt 9.839711 14.262246 0.000000
vt 8.923044 14.412108 0.000000
vt 8.923044 14.262246 0.000000
vt 9.839711 14.412108 0.000000
vt 9.839711 -9.942665 0.000000
vt 8.923044 -9.119748 0.000000
vt 8.923044 -9.942665 0.000000
vt 9.839711 -9.119748 0.000000
vt -9.839711 10.764989 0.000000
vt -8.923044 9.958698 0.000000
vt -8.923044 10.764989 0.000000
vt -9.839711 9.958698 0.000000
vt -57.870914 40.767204 0.000000
vt -62.109856 40.767204 0.000000
vt -62.109856 43.392204 0.000000
vt -57.870914 43.392204 0.000000
vt -62.109856 55.121471 0.000000
vt -57.870914 51.663139 0.000000
vt -57.870914 55.121471 0.000000
vt -62.109856 51.663139 0.000000
vt 57.870914 -36.114811 0.000000
vt 62.109856 -36.114811 0.000000
vt 62.109856 -38.712524 0.000000
vt 57.870914 -38.712524 0.000000
vt 62.109856 39.834793 0.000000
vt 57.870914 43.059956 0.000000
vt 57.870914 39.834793 0.000000
vt 62.109856 43.059956 0.000000
vt -62.109856 -36.478992 0.000000
vt -57.870914 -39.770660 0.000000
vt -57.870914 -36.478992 0.000000
vt -62.029663 -39.770660 0.000000
vt -62.109856 -39.770660 0.000000
vt 49.699009 5.396823 0.000000
vt 51.340984 7.567955 0.000000
vt 48.956059 5.396823 0.000000
vt 51.663139 7.138321 0.000000
vt 55.174316 7.567955 0.000000
vt 55.121471 7.138321 0.000000
vt 57.648434 5.396823 0.000000
vt 57.048985 5.396823 0.000000
vt 0.000000 0.000000 0.000000
vt 15.846504 8.408574 0.000000
vt 13.346504 7.576574 0.000000
vt 15.846504 7.576574 0.000000
vt 13.346504 8.408574 0.000000
vt 43.577885 -20.967468 0.000000
vt 36.702885 -17.824394 0.000000
vt 36.702885 -20.967468 0.000000
vt 43.577885 -17.824394 0.000000
vt 26.298830 13.860496 0.000000
vt 23.298830 16.422997 0.000000
vt 23.298830 14.797996 0.000000
vt 26.298830 16.422997 0.000000
vt 43.577885 23.298830 0.000000
vt 36.702885 26.298830 0.000000
vt 36.702885 23.298830 0.000000
vt 43.577885 26.298830 0.000000
vt -26.298830 16.422997 0.000000
vt -23.298830 14.797996 0.000000
vt -23.298830 16.422997 0.000000
vt -26.298830 13.860496 0.000000
# 118 texture coords

g Budka
usemtl M_TruckMet
s off
f 36/2/1 18/3/2 21/1/3 
f 1/4/4 36/2/5 21/1/6 
f 42/7/7 3/8/8 14/5/9 
f 21/1/10 42/7/11 14/5/12 
f 1/4/13 21/1/14 14/5/15 
f 1/4/16 14/5/17 2/6/18 
f 21/9/19 18/12/20 17/10/21 
f 17/10/22 4/11/23 21/9/24 
usemtl M_House_white
f 20/20/25 11/21/26 6/19/27 
f 1/17/28 20/20/29 6/19/30 
f 1/17/31 6/19/32 33/18/33 
f 1/17/34 33/18/35 32/16/36 
f 36/13/37 1/17/38 32/16/39 
f 36/13/40 32/16/41 5/14/42 
f 36/13/43 5/14/44 19/15/45 
f 19/22/46 8/24/47 7/23/48 
f 7/23/49 5/25/50 19/22/51 
usemtl M_Syr3
f 35/26/52 28/28/53 26/27/54 
f 26/27/55 36/29/56 35/26/57 
f 9/30/58 43/31/59 3/8/60 
f 3/8/61 42/7/62 9/30/63 
usemtl M_House_white
f 58/32/64 10/35/65 50/33/66 
f 50/33/67 46/34/68 58/32/69 
usemtl M_TruckMet
f 32/36/70 33/36/71 6/36/72 
f 32/36/73 6/36/74 11/36/75 
f 32/36/76 11/36/77 5/36/78 
f 2/36/79 14/36/80 12/36/81 
f 12/36/82 13/36/83 2/36/84 
f 15/36/85 40/36/86 38/36/87 
f 38/36/88 16/36/89 15/36/90 
f 36/36/91 19/36/92 17/36/93 
f 17/36/94 18/36/95 36/36/96 
f 2/36/97 13/36/98 20/36/99 
f 20/36/100 35/36/101 2/36/102 
f 4/36/103 22/36/104 42/36/105 
f 42/36/106 21/36/107 4/36/108 
f 19/36/109 22/36/110 4/36/111 
f 4/36/112 17/36/113 19/36/114 
f 44/36/115 12/36/116 14/36/117 
f 14/36/118 3/36/119 44/36/120 
usemtl M_House_white
f 7/37/121 8/39/122 26/38/123 
f 26/38/124 27/40/125 7/37/126 
f 5/45/127 7/46/128 27/47/129 
f 27/47/130 32/48/131 5/45/132 
f 32/49/133 27/51/134 29/50/135 
f 29/50/136 33/52/137 32/49/138 
f 33/53/139 29/54/140 31/55/141 
f 31/55/142 11/56/143 33/53/144 
f 11/57/145 31/59/146 30/58/147 
f 30/58/148 34/60/149 11/57/150 
f 34/61/151 30/63/152 28/62/153 
f 28/62/154 35/64/155 34/61/156 
f 36/65/157 26/67/158 8/66/159 
f 8/66/160 19/68/161 36/65/162 
f 16/69/163 38/72/164 37/71/165 
f 37/71/166 24/70/167 16/69/168 
f 39/73/169 37/76/170 38/74/171 
f 38/74/172 40/75/173 39/73/174 
f 40/77/175 15/80/176 41/79/177 
f 41/79/178 39/78/179 40/77/180 
f 25/81/181 9/84/182 42/82/183 
f 42/82/184 22/83/185 25/81/186 
f 43/85/187 45/89/188 23/88/189 
f 43/85/190 23/88/191 44/86/192 
f 43/85/193 44/86/194 3/87/195 
f 24/90/196 37/93/197 9/91/198 
f 9/91/199 25/92/200 24/90/201 
usemtl M_Syr3
f 50/98/202 51/98/203 49/98/204 
f 46/98/205 50/98/206 49/98/207 
f 46/98/208 49/98/209 47/98/210 
f 46/98/211 47/98/212 48/98/213 
f 52/98/214 55/98/215 53/98/216 
f 53/98/217 54/98/218 52/98/219 
f 53/98/220 48/98/221 47/98/222 
f 47/98/223 54/98/224 53/98/225 
f 52/98/226 54/98/227 56/98/228 
f 52/98/229 56/98/230 63/98/231 
f 52/98/232 63/98/233 61/98/234 
f 49/98/235 52/98/236 61/98/237 
f 47/98/238 49/98/239 61/98/240 
f 47/98/241 61/98/242 57/98/243 
f 57/98/244 56/98/245 54/98/246 
f 47/98/247 57/98/248 54/98/249 
f 51/98/250 55/98/251 52/98/252 
f 52/98/253 49/98/254 51/98/255 
f 46/98/256 48/98/257 53/98/258 
f 58/98/259 46/98/260 53/98/261 
f 10/98/262 58/98/263 53/98/264 
f 10/98/265 53/98/266 55/98/267 
f 10/98/268 55/98/269 51/98/270 
f 10/98/271 51/98/272 50/98/273 
usemtl M_House_white
f 59/99/274 64/102/275 60/100/276 
f 60/100/277 62/101/278 59/99/279 
f 61/103/280 62/106/281 60/104/282 
f 60/104/283 57/105/284 61/103/285 
f 61/107/286 63/110/287 59/108/288 
f 59/108/289 62/109/290 61/107/291 
f 59/111/292 63/114/293 56/112/294 
f 56/112/295 64/113/296 59/111/297 
f 56/115/298 57/118/299 60/116/300 
f 60/116/301 64/117/302 56/115/303 
f 24/36/304 25/36/305 22/36/306 
f 22/36/307 16/36/308 24/36/309 
f 23/36/310 45/36/311 41/36/312 
f 23/36/313 41/36/314 15/36/315 
f 44/36/316 23/36/317 15/36/318 
f 28/41/319 30/43/320 31/44/321 
f 31/44/322 29/42/323 28/41/324 
f 28/41/325 29/42/326 27/40/327 
f 27/40/328 26/38/329 28/41/330 
f 37/93/331 39/95/332 43/94/333 
f 43/94/334 9/91/335 37/93/336 
f 41/97/337 45/96/338 43/94/339 
f 43/94/340 39/95/341 41/97/342 
usemtl M_TruckMet
f 20/36/343 13/36/344 12/36/345 
f 11/36/346 20/36/347 12/36/348 
f 11/36/349 12/36/350 44/36/351 
f 11/36/352 44/36/353 15/36/354 
f 11/36/355 15/36/356 16/36/357 
f 16/36/358 5/36/359 11/36/360 
f 19/36/361 5/36/362 16/36/363 
f 16/36/364 22/36/365 19/36/366 
# 122 faces

